<?xml version="1.0" encoding="utf-8"?>
<!-- Generator: Adobe Illustrator 16.0.0, SVG Export Plug-In . SVG Version: 6.00 Build 0)  -->
<!DOCTYPE svg PUBLIC "-//W3C//DTD SVG 1.1//EN" "http://www.w3.org/Graphics/SVG/1.1/DTD/svg11.dtd">
<svg version="1.1" id="Layer_1" xmlns="http://www.w3.org/2000/svg" xmlns:xlink="http://www.w3.org/1999/xlink" x="0px" y="0px"
	 width="92px" height="92px" viewBox="0 0 92 92" enable-background="new 0 0 92 92" xml:space="preserve">
<path d="M72,46c0,14.361-11.643,26-26,26c-14.361,0-26-11.639-26-26c0-1.711,0.17-3.382,0.484-5H3v34.562
	C3,82.984,9.012,89,16.438,89h59.125C82.98,89,89,82.984,89,75.562V41H71.514C71.83,42.618,72,44.289,72,46z M75.562,3H16.438
	C9.012,3,3,9.018,3,16.438V31h21.768C29.477,24.347,37.229,20,46,20c8.77,0,16.521,4.347,21.229,11H89V16.438
	C89,9.018,82.98,3,75.562,3z M82.131,19.6c0,1.321-1.078,2.4-2.398,2.4h-7.201c-1.318,0-2.4-1.079-2.4-2.4V12.4
	c0-1.321,1.082-2.4,2.4-2.4h7.201c1.32,0,2.398,1.079,2.398,2.4V19.6z M62,46c0-8.837-7.164-16-16-16c-8.838,0-16,7.163-16,16
	s7.162,16,16,16C54.836,62,62,54.837,62,46z"/>
</svg>
